<svg width="24" height="24" viewBox="0 0 24 24" fill="none" xmlns="http://www.w3.org/2000/svg">
<path d="M21.1711 15.398L15.2591 5.544C14.4831 4.251 13.2961 3.511 12.0001 3.511C10.7041 3.511 9.51705 4.251 8.74105 5.542L2.82905 15.398C2.04305 16.707 1.95705 18.103 2.59405 19.228C3.23005 20.354 4.47205 21 6.00005 21H18.0001C19.5281 21 20.7701 20.354 21.4061 19.229C22.0421 18.104 21.9571 16.708 21.1711 15.398ZM12.0001 17.549C11.1461 17.549 10.4501 16.854 10.4501 16C10.4501 15.145 11.1451 14.449 12.0001 14.449C12.8551 14.449 13.5501 15.145 13.5501 16C13.5501 16.854 12.8541 17.549 12.0001 17.549ZM13.6331 10.125C13.6221 10.156 12.2321 13.593 12.2321 13.593C12.1941 13.687 12.1021 13.749 12.0011 13.749C11.9001 13.749 11.8081 13.687 11.7701 13.593L10.3791 10.155C10.2956 9.94662 10.2518 9.72447 10.2501 9.5C10.2501 8.535 11.0351 7.75 12.0001 7.75C12.2835 7.75073 12.5625 7.8202 12.8131 7.95246C13.0638 8.08472 13.2787 8.27582 13.4392 8.50936C13.5998 8.7429 13.7013 9.01191 13.7351 9.29331C13.7688 9.57472 13.7338 9.86011 13.6331 10.125Z" fill="#8C8C8C"/>
</svg>
