<svg width="21" height="21" viewBox="0 0 21 21" fill="none" xmlns="http://www.w3.org/2000/svg">
<path d="M10.5 1.75C15.3326 1.75 19.25 5.66738 19.25 10.5C19.25 15.3326 15.3326 19.25 10.5 19.25C5.66738 19.25 1.75 15.3326 1.75 10.5C1.75 5.66738 5.66738 1.75 10.5 1.75ZM10.5 13.125C10.2679 13.125 10.0454 13.2172 9.88128 13.3813C9.71719 13.5454 9.625 13.7679 9.625 14C9.625 14.2321 9.71719 14.4546 9.88128 14.6187C10.0454 14.7828 10.2679 14.875 10.5 14.875C10.7321 14.875 10.9546 14.7828 11.1187 14.6187C11.2828 14.4546 11.375 14.2321 11.375 14C11.375 13.7679 11.2828 13.5454 11.1187 13.3813C10.9546 13.2172 10.7321 13.125 10.5 13.125ZM10.5 5.25C10.2857 5.25003 10.0788 5.32871 9.91867 5.47113C9.75852 5.61354 9.6562 5.80978 9.63112 6.02262L9.625 6.125V11.375C9.62525 11.598 9.71064 11.8125 9.86374 11.9747C10.0168 12.1369 10.2261 12.2345 10.4487 12.2475C10.6714 12.2606 10.8906 12.1882 11.0616 12.045C11.2326 11.9019 11.3425 11.6988 11.3689 11.4774L11.375 11.375V6.125C11.375 5.89294 11.2828 5.67038 11.1187 5.50628C10.9546 5.34219 10.7321 5.25 10.5 5.25Z" fill="#4A4A4A"/>
</svg>
