<svg width="24" height="24" viewBox="0 0 24 24" fill="none" xmlns="http://www.w3.org/2000/svg">
<path d="M12 11.616C12.7307 11.616 13.3493 11.3627 13.856 10.856C14.3627 10.3493 14.616 9.73067 14.616 9C14.616 8.26933 14.3627 7.65067 13.856 7.144C13.3493 6.63733 12.7307 6.384 12 6.384C11.2693 6.384 10.6507 6.63733 10.144 7.144C9.63733 7.65067 9.384 8.26933 9.384 9C9.384 9.73067 9.63733 10.3493 10.144 10.856C10.6507 11.3627 11.2693 11.616 12 11.616ZM10.5 9.5C10.3667 9.5 10.25 9.45 10.15 9.35C10.05 9.25 10 9.13333 10 9C10 8.86667 10.05 8.75 10.15 8.65C10.25 8.55 10.3667 8.5 10.5 8.5C10.6333 8.5 10.75 8.55 10.85 8.65C10.95 8.75 11 8.86667 11 9C11 9.13333 10.95 9.25 10.85 9.35C10.75 9.45 10.6333 9.5 10.5 9.5ZM12 9.5C11.8667 9.5 11.75 9.45 11.65 9.35C11.55 9.25 11.5 9.13333 11.5 9C11.5 8.86667 11.55 8.75 11.65 8.65C11.75 8.55 11.8667 8.5 12 8.5C12.1333 8.5 12.25 8.55 12.35 8.65C12.45 8.75 12.5 8.86667 12.5 9C12.5 9.13333 12.45 9.25 12.35 9.35C12.25 9.45 12.1333 9.5 12 9.5ZM13.5 9.5C13.3667 9.5 13.25 9.45 13.15 9.35C13.05 9.25 13 9.13333 13 9C13 8.86667 13.05 8.75 13.15 8.65C13.25 8.55 13.3667 8.5 13.5 8.5C13.6333 8.5 13.75 8.55 13.85 8.65C13.95 8.75 14 8.86667 14 9C14 9.13333 13.95 9.25 13.85 9.35C13.75 9.45 13.6333 9.5 13.5 9.5ZM5.616 20C5.15533 20 4.771 19.846 4.463 19.538C4.155 19.23 4.00067 18.8453 4 18.384V5.616C4 5.15533 4.15433 4.771 4.463 4.463C4.77167 4.155 5.156 4.00067 5.616 4H18.385C18.845 4 19.2293 4.15433 19.538 4.463C19.8467 4.77167 20.0007 5.156 20 5.616V18.385C20 18.845 19.846 19.2293 19.538 19.538C19.23 19.8467 18.8453 20.0007 18.384 20H5.616ZM5.616 19H18.385C18.5383 19 18.6793 18.936 18.808 18.808C18.9367 18.68 19.0007 18.5387 19 18.384V5.616C19 5.462 18.936 5.32067 18.808 5.192C18.68 5.06333 18.5387 4.99933 18.384 5H5.616C5.462 5 5.32067 5.064 5.192 5.192C5.06333 5.32 4.99933 5.46133 5 5.616V18.385C5 18.5383 5.064 18.6793 5.192 18.808C5.32 18.9367 5.461 19.0007 5.615 19" fill="#4A4A4A"/>
</svg>
