<svg width="24" height="24" viewBox="0 0 24 24" fill="none" xmlns="http://www.w3.org/2000/svg">
<path d="M7.49993 10.306C6.78793 13.381 10.7464 14.1635 9.81193 16.33C8.87693 18.496 6.78443 18.063 7.01793 20.229C7.25193 22.3955 10.0209 22.426 12.5419 21.121C17.5834 18.5105 18.6354 12.8085 16.3539 10.306C13.5499 7.23098 8.21193 7.23098 7.49993 10.306Z" stroke="#FFD875" stroke-width="2"/>
<path d="M16.3033 7.91657C16.7263 8.27157 17.501 8.0449 18.0335 7.41029C18.566 6.77568 18.6547 5.97344 18.2316 5.61843C17.8085 5.26343 17.0339 5.4901 16.5014 6.12471C15.9689 6.75933 15.8802 7.56157 16.3033 7.91657Z" fill="#FFD875"/>
<path d="M14.0564 6.66116C14.557 6.89457 15.2465 6.47513 15.5967 5.72432C15.9468 4.97351 15.8248 4.17565 15.3243 3.94224C14.8237 3.70884 14.1341 4.12827 13.784 4.87908C13.4339 5.62989 13.5559 6.42776 14.0564 6.66116Z" fill="#FFD875"/>
<path d="M11.5336 6.29332C12.0829 6.35105 12.5983 5.72996 12.6849 4.90607C12.7715 4.08218 12.3964 3.36749 11.8472 3.30976C11.2979 3.25203 10.7825 3.87312 10.6959 4.69701C10.6093 5.5209 10.9843 6.2356 11.5336 6.29332Z" fill="#FFD875"/>
<path d="M7.68399 5.87938C8.46246 5.59604 8.78728 4.52492 8.40949 3.48696C8.03171 2.44901 7.09438 1.83727 6.31591 2.12061C5.53744 2.40395 5.21263 3.47507 5.59041 4.51302C5.9682 5.55098 6.90552 6.16272 7.68399 5.87938Z" stroke="#FFD875" stroke-width="2"/>
<path d="M18.1183 9.73216C18.4733 10.1552 19.2756 10.0665 19.9102 9.53402C20.5448 9.00152 20.7715 8.22687 20.4165 7.80379C20.0615 7.38072 19.2592 7.46943 18.6246 8.00193C17.99 8.53443 17.7633 9.30908 18.1183 9.73216Z" fill="#FFD875"/>
</svg>
