<svg width="27" height="27" viewBox="0 0 27 27" fill="none" xmlns="http://www.w3.org/2000/svg">
<path d="M12.9533 2.4098L11.5358 1.56042L11.2658 3.19055C10.836 5.76455 9.07766 8.1563 7.13816 9.83705C3.34129 13.1288 2.50991 16.7063 3.68554 19.6594C4.81054 22.4854 7.66579 24.4204 10.5638 24.7433L11.2343 24.8176C9.57604 23.8039 8.51179 21.4358 8.88304 19.6662C9.24979 17.9269 10.5008 16.2979 12.9038 14.7949L14.1154 14.0389L14.5677 15.3945C14.8343 16.1955 15.2955 16.839 15.7647 17.4927C15.9897 17.8077 16.218 18.126 16.4273 18.4647C17.1507 19.6403 17.3419 20.9476 16.875 22.2447C16.4498 23.4237 15.7489 24.3507 14.7825 24.8648L15.8738 24.7433C18.594 24.4407 20.5909 23.5103 21.888 21.9544C23.1739 20.4121 23.625 18.4264 23.625 16.3125C23.625 14.3438 22.8162 12.3143 21.8622 10.6257C20.7439 8.64792 19.2848 7.00542 17.6918 5.41355C17.4162 5.9648 17.4375 6.18755 16.8705 7.07293C16.1342 5.11763 14.7522 3.47245 12.9533 2.4098Z" fill="#FFEAD6"/>
</svg>
