<svg width="24" height="24" viewBox="0 0 24 24" fill="none" xmlns="http://www.w3.org/2000/svg">
<path d="M19.5 2.4375H15.75C15.6008 2.4375 15.4577 2.49676 15.3522 2.60225C15.2468 2.70774 15.1875 2.85082 15.1875 3C15.1875 3.14918 15.2468 3.29226 15.3522 3.39775C15.4577 3.50324 15.6008 3.5625 15.75 3.5625H18.1425L15.33 6.36938C14.6684 5.71377 13.8589 5.22675 12.9698 4.94934C12.0806 4.67194 11.1379 4.61227 10.2208 4.77537C9.30381 4.93847 8.43941 5.31956 7.70044 5.88653C6.96147 6.45351 6.36958 7.18976 5.97462 8.03329C5.57965 8.87681 5.39318 9.8029 5.43092 10.7336C5.46866 11.6642 5.72949 12.5722 6.19145 13.3809C6.65341 14.1897 7.30297 14.8756 8.08541 15.3809C8.86786 15.8862 9.76027 16.1961 10.6875 16.2844V18.1875H8.24999C8.1008 18.1875 7.95773 18.2468 7.85224 18.3523C7.74675 18.4577 7.68749 18.6008 7.68749 18.75C7.68749 18.8992 7.74675 19.0423 7.85224 19.1477C7.95773 19.2532 8.1008 19.3125 8.24999 19.3125H10.6875V21.75C10.6875 21.8992 10.7468 22.0423 10.8522 22.1477C10.9577 22.2532 11.1008 22.3125 11.25 22.3125C11.3992 22.3125 11.5422 22.2532 11.6477 22.1477C11.7532 22.0423 11.8125 21.8992 11.8125 21.75V19.3125H14.25C14.3992 19.3125 14.5422 19.2532 14.6477 19.1477C14.7532 19.0423 14.8125 18.8992 14.8125 18.75C14.8125 18.6008 14.7532 18.4577 14.6477 18.3523C14.5422 18.2468 14.3992 18.1875 14.25 18.1875H11.8125V16.2844C12.8156 16.1863 13.7759 15.829 14.5992 15.2477C15.4225 14.6664 16.0805 13.881 16.5086 12.9685C16.9368 12.0561 17.1203 11.0481 17.0412 10.0433C16.9621 9.0386 16.6231 8.07168 16.0575 7.2375L18.9375 4.3575V6.75C18.9375 6.89918 18.9968 7.04226 19.1022 7.14775C19.2077 7.25324 19.3508 7.3125 19.5 7.3125C19.6492 7.3125 19.7922 7.25324 19.8977 7.14775C20.0032 7.04226 20.0625 6.89918 20.0625 6.75V3C20.0625 2.85082 20.0032 2.70774 19.8977 2.60225C19.7922 2.49676 19.6492 2.4375 19.5 2.4375ZM11.25 15.1875C10.3229 15.1875 9.41661 14.9126 8.64575 14.3975C7.8749 13.8824 7.27409 13.1504 6.9193 12.2938C6.56452 11.4373 6.47169 10.4948 6.65256 9.58551C6.83343 8.67623 7.27987 7.841 7.93543 7.18544C8.59098 6.52988 9.42622 6.08344 10.3355 5.90257C11.2448 5.7217 12.1873 5.81453 13.0438 6.16931C13.9003 6.5241 14.6324 7.12491 15.1475 7.89576C15.6626 8.66662 15.9375 9.5729 15.9375 10.5C15.936 11.7427 15.4417 12.9342 14.5629 13.8129C13.6842 14.6917 12.4927 15.186 11.25 15.1875Z" fill="#4A4A4A"/>
</svg>
