<svg width="40" height="40" viewBox="0 0 40 40" fill="none" xmlns="http://www.w3.org/2000/svg">
<path d="M12.5 17.1767C11.3133 22.3017 17.9108 23.6058 16.3533 27.2167C14.795 30.8267 11.3075 30.105 11.6966 33.715C12.0866 37.3258 16.7016 37.3767 20.9033 35.2017C29.3058 30.8508 31.0591 21.3475 27.2566 17.1767C22.5833 12.0517 13.6866 12.0517 12.5 17.1767Z" fill="#8C8C8C" stroke="#8C8C8C" stroke-width="2"/>
<path d="M27.1722 13.1943C27.8773 13.7859 29.1684 13.4082 30.0559 12.3505C30.9434 11.2928 31.0912 9.95572 30.3861 9.36405C29.681 8.77238 28.3899 9.15016 27.5024 10.2079C26.6149 11.2655 26.4671 12.6026 27.1722 13.1943Z" fill="#8C8C8C"/>
<path d="M23.4276 11.102C24.2618 11.491 25.4111 10.7919 25.9946 9.54055C26.5781 8.28921 26.3749 6.95943 25.5407 6.57042C24.7064 6.18141 23.5571 6.88048 22.9736 8.13183C22.3901 9.38318 22.5933 10.713 23.4276 11.102Z" fill="#8C8C8C"/>
<path d="M19.2228 10.4889C20.1383 10.5851 20.9974 9.54995 21.1417 8.1768C21.286 6.80366 20.6609 5.6125 19.7455 5.51629C18.8301 5.42007 17.971 6.45523 17.8266 7.82838C17.6823 9.20152 18.3074 10.3927 19.2228 10.4889Z" fill="#8C8C8C"/>
<path d="M12.8067 9.79897C14.1042 9.32674 14.6455 7.54154 14.0159 5.81161C13.3863 4.08169 11.824 3.06212 10.5266 3.53435C9.22915 4.00659 8.68779 5.79179 9.31744 7.52171C9.94708 9.25164 11.5093 10.2712 12.8067 9.79897Z" fill="#8C8C8C" stroke="#8C8C8C" stroke-width="2"/>
<path d="M30.1974 16.2203C30.7891 16.9254 32.1261 16.7776 33.1838 15.8901C34.2415 15.0026 34.6193 13.7115 34.0276 13.0064C33.4359 12.3012 32.0989 12.4491 31.0412 13.3366C29.9835 14.2241 29.6057 15.5152 30.1974 16.2203Z" fill="#8C8C8C"/>
</svg>
