<svg width="40" height="40" viewBox="0 0 40 40" fill="none" xmlns="http://www.w3.org/2000/svg">
<path d="M20 36.6667C17.6944 36.6667 15.5278 36.2289 13.5 35.3533C11.4722 34.4778 9.70831 33.2906 8.20832 31.7917C6.70832 30.2928 5.52109 28.5289 4.64665 26.5C3.7722 24.4711 3.33443 22.3045 3.33332 20C3.3322 17.6956 3.76998 15.5289 4.64665 13.5C5.52332 11.4711 6.71054 9.70723 8.20832 8.20834C9.70609 6.70946 11.47 5.52223 13.5 4.64668C15.53 3.77112 17.6966 3.33334 20 3.33334C22.3033 3.33334 24.47 3.77112 26.5 4.64668C28.53 5.52223 30.2939 6.70946 31.7917 8.20834C33.2894 9.70723 34.4772 11.4711 35.355 13.5C36.2328 15.5289 36.67 17.6956 36.6666 20C36.6633 22.3045 36.2255 24.4711 35.3533 26.5C34.4811 28.5289 33.2939 30.2928 31.7917 31.7917C30.2894 33.2906 28.5255 34.4783 26.5 35.355C24.4744 36.2317 22.3078 36.6689 20 36.6667ZM20 33.3333C23.7222 33.3333 26.875 32.0417 29.4583 29.4583C32.0416 26.875 33.3333 23.7222 33.3333 20C33.3333 19.8056 33.3267 19.6039 33.3133 19.395C33.3 19.1861 33.2928 19.0128 33.2916 18.875C33.1528 19.6806 32.7778 20.3472 32.1666 20.875C31.5555 21.4028 30.8333 21.6667 30 21.6667H26.6666C25.75 21.6667 24.9655 21.3406 24.3133 20.6883C23.6611 20.0361 23.3344 19.2511 23.3333 18.3333V16.6667H16.6666V13.3333C16.6666 12.4167 16.9933 11.6322 17.6466 10.98C18.3 10.3278 19.0844 10.0011 20 10H21.6666C21.6666 9.36112 21.8405 8.7989 22.1883 8.31334C22.5361 7.82779 22.9594 7.43168 23.4583 7.12501C22.9028 6.98612 22.3405 6.87501 21.7716 6.79168C21.2028 6.70834 20.6122 6.66668 20 6.66668C16.2778 6.66668 13.125 7.95834 10.5416 10.5417C7.95831 13.125 6.66665 16.2778 6.66665 20H15C16.8333 20 18.4028 20.6528 19.7083 21.9583C21.0139 23.2639 21.6666 24.8333 21.6666 26.6667V28.3333H16.6666V32.9167C17.2222 33.0556 17.7711 33.16 18.3133 33.23C18.8555 33.3 19.4178 33.3345 20 33.3333Z" fill="#7DB7E8"/>
</svg>
