<svg width="16" height="22" viewBox="0 0 16 22" fill="none" xmlns="http://www.w3.org/2000/svg">
<path fill-rule="evenodd" clip-rule="evenodd" d="M11.808 15.5542L11.6747 15.887C9.28964 16.6822 6.71036 16.6822 4.32533 15.887L4.192 15.5542C4.06533 15.248 4.00133 15.0936 3.89067 14.9525C3.78133 14.8101 3.58933 14.6663 3.20533 14.3802C1.86079 13.3752 0.867196 11.9732 0.365384 10.3729C-0.136429 8.77265 -0.121001 7.0553 0.40948 5.46428C0.939962 3.87326 1.95858 2.48929 3.32097 1.50854C4.68335 0.527781 6.32037 0 8 0C9.67963 0 11.3167 0.527781 12.679 1.50854C14.0414 2.48929 15.06 3.87326 15.5905 5.46428C16.121 7.0553 16.1364 8.77265 15.6346 10.3729C15.1328 11.9732 14.1392 13.3752 12.7947 14.3802C12.4107 14.6663 12.2187 14.8101 12.1093 14.9525C12 15.095 11.936 15.2467 11.808 15.5542ZM5.13333 18.8554C5.24889 19.5582 5.31467 20.2673 5.33067 20.9825C5.33201 21.077 5.35917 21.1694 5.40922 21.2496C5.45927 21.3298 5.5303 21.3949 5.61467 21.4378C6.35528 21.8075 7.17195 22 8 22C8.82805 22 9.64472 21.8075 10.3853 21.4378C10.4697 21.3949 10.5407 21.3298 10.5908 21.2496C10.6408 21.1694 10.668 21.077 10.6693 20.9825C10.6853 20.2673 10.7511 19.5582 10.8667 18.8554C8.97524 19.2427 7.02476 19.2427 5.13333 18.8554Z" fill="#FFD875"/>
</svg>
