<svg width="42" height="41" viewBox="0 0 42 41" fill="none" xmlns="http://www.w3.org/2000/svg">
<path d="M42 38.3968V16.2698C42 15.8657 41.9051 15.4671 41.7229 15.1057C41.5406 14.7442 41.276 14.4298 40.95 14.1873L22.575 0.520634C22.1206 0.182685 21.568 0 21 0C20.432 0 19.8794 0.182685 19.425 0.520634L1.05 14.1873C0.723986 14.4298 0.459376 14.7442 0.277128 15.1057C0.0948806 15.4671 0 15.8657 0 16.2698V38.3968C0 39.0872 0.276562 39.7494 0.768845 40.2376C1.26113 40.7257 1.92881 41 2.625 41H13.125C13.8212 41 14.4889 40.7257 14.9812 40.2376C15.4734 39.7494 15.75 39.0872 15.75 38.3968V30.5873C15.75 29.8969 16.0266 29.2348 16.5188 28.7466C17.0111 28.2584 17.6788 27.9841 18.375 27.9841H23.625C24.3212 27.9841 24.9889 28.2584 25.4812 28.7466C25.9734 29.2348 26.25 29.8969 26.25 30.5873V38.3968C26.25 39.0872 26.5266 39.7494 27.0188 40.2376C27.5111 40.7257 28.1788 41 28.875 41H39.375C40.0712 41 40.7389 40.7257 41.2312 40.2376C41.7234 39.7494 42 39.0872 42 38.3968Z" fill="#4A4A4A"/>
</svg>
