<svg width="25" height="24" viewBox="0 0 25 24" fill="none" xmlns="http://www.w3.org/2000/svg">
<path fill-rule="evenodd" clip-rule="evenodd" d="M16.594 2.21812C16.7346 2.07767 16.9253 1.99878 17.124 1.99878C17.3228 1.99878 17.5134 2.07767 17.654 2.21812L18.844 3.40812L18.846 3.40912L21.804 6.36812C21.8777 6.43678 21.9368 6.51958 21.9778 6.61158C22.0188 6.70358 22.0408 6.80289 22.0426 6.9036C22.0444 7.0043 22.0258 7.10433 21.9881 7.19772C21.9504 7.2911 21.8943 7.37594 21.823 7.44716C21.7518 7.51838 21.667 7.57452 21.5736 7.61224C21.4802 7.64996 21.3802 7.66849 21.2795 7.66671C21.1788 7.66493 21.0795 7.64289 20.9875 7.6019C20.8955 7.56091 20.8127 7.50181 20.744 7.42812L20.084 6.76812L18.377 8.47412L19.084 9.18112C19.2245 9.32174 19.3033 9.51237 19.3033 9.71112C19.3033 9.90987 19.2245 10.1005 19.084 10.2411L10.808 18.5191C10.4439 18.8833 9.96586 19.1116 9.45371 19.1659C8.94157 19.2201 8.42632 19.097 7.994 18.8171L7.96 18.8531L6.922 19.8911C6.78138 20.0316 6.59075 20.1105 6.392 20.1105C6.19325 20.1105 6.00263 20.0316 5.862 19.8911L5.527 19.5561L3.302 21.7811C3.23334 21.8548 3.15054 21.9139 3.05854 21.9549C2.96654 21.9959 2.86723 22.0179 2.76653 22.0197C2.66582 22.0215 2.56579 22.003 2.47241 21.9652C2.37902 21.9275 2.29418 21.8714 2.22297 21.8002C2.15175 21.7289 2.0956 21.6441 2.05788 21.5507C2.02016 21.4573 2.00164 21.3573 2.00341 21.2566C2.00519 21.1559 2.02723 21.0566 2.06822 20.9646C2.10922 20.8726 2.16832 20.7898 2.242 20.7211L4.466 18.4951L4.132 18.1621C4.06231 18.0925 4.00702 18.0098 3.9693 17.9187C3.93158 17.8277 3.91216 17.7302 3.91216 17.6316C3.91216 17.5331 3.93158 17.4355 3.9693 17.3445C4.00702 17.2535 4.06231 17.1708 4.132 17.1011L5.17 16.0631L5.206 16.0291C4.92612 15.5968 4.80302 15.0816 4.85726 14.5694C4.91149 14.0573 5.13978 13.5792 5.504 13.2151L13.781 4.93812C13.9216 4.79767 14.1123 4.71878 14.311 4.71878C14.5098 4.71878 14.7004 4.79767 14.841 4.93812L15.549 5.64512L17.255 3.93912L16.594 3.27912C16.5243 3.20947 16.469 3.12677 16.4313 3.03574C16.3936 2.94472 16.3742 2.84715 16.3742 2.74862C16.3742 2.65009 16.3936 2.55252 16.4313 2.4615C16.469 2.37047 16.5243 2.28777 16.594 2.21812ZM18.315 5.00012L16.61 6.70612L17.318 7.41312L19.024 5.70712L18.315 5.00012ZM15.013 7.23012L14.312 6.53012L6.565 14.2761C6.42455 14.4167 6.34566 14.6074 6.34566 14.8061C6.34566 15.0049 6.42455 15.1955 6.565 15.3361L8.686 17.4581C8.75565 17.5278 8.83836 17.5831 8.92938 17.6208C9.02041 17.6585 9.11797 17.678 9.2165 17.678C9.31504 17.678 9.4126 17.6585 9.50363 17.6208C9.59465 17.5831 9.67735 17.5278 9.747 17.4581L17.494 9.71112L16.792 9.01012L16.786 9.00412L15.018 7.23612L15.013 7.23012Z" fill="#4A4A4A"/>
</svg>
