<svg width="24" height="24" viewBox="0 0 24 24" fill="none" xmlns="http://www.w3.org/2000/svg">
<path d="M12 7C6.48 7 2 9.24 2 12C2 14.24 4.94 16.13 9 16.77V18.79C9 19.24 9.54 19.46 9.85 19.14L12.64 16.35C12.84 16.15 12.84 15.84 12.64 15.64L9.85 12.85C9.7795 12.7809 9.69013 12.7342 9.59314 12.7158C9.49616 12.6974 9.39589 12.7082 9.30499 12.7467C9.2141 12.7852 9.13663 12.8497 9.08235 12.9322C9.02807 13.0146 8.99942 13.1113 9 13.21V14.73C5.85 14.17 4 12.83 4 12C4 10.94 7.04 9 12 9C16.96 9 20 10.94 20 12C20 12.66 18.8 13.68 16.68 14.34C16.27 14.47 16 14.85 16 15.28C16 15.95 16.65 16.44 17.28 16.24C20.11 15.36 22 13.79 22 12C22 9.24 17.52 7 12 7Z" fill="#4A4A4A"/>
</svg>
