<svg width="37" height="52" viewBox="0 0 37 52" fill="none" xmlns="http://www.w3.org/2000/svg">
<path fill-rule="evenodd" clip-rule="evenodd" d="M31.45 52H5.55C3.4669 52 1.9869 50.5816 1.0878 48.6316C0.38861 47.0793 0.00913688 45.2311 0 43.3333V8.66667C0 6.36812 0.584731 4.16372 1.62556 2.53841C2.66638 0.913093 4.07805 0 5.55 0H24.05C25.522 0 26.9336 0.913093 27.9744 2.53841C29.0153 4.16372 29.6 6.36812 29.6 8.66667V23.1111H35.15C35.6407 23.1111 36.1112 23.4155 36.4581 23.9572C36.8051 24.499 37 25.2338 37 26V43.3333C37 44.7576 36.741 46.8318 35.9122 48.6316C35.0113 50.5844 33.5312 52 31.45 52ZM33.3 31.7778C33.3 31.0116 33.1051 30.2768 32.7581 29.735C32.4112 29.1933 31.9407 28.8889 31.45 28.8889C30.9594 28.8889 30.4888 29.1933 30.1419 29.735C29.7949 30.2768 29.6 31.0116 29.6 31.7778V43.3333C29.6 44.0995 29.7949 44.8343 30.1419 45.3761C30.4888 45.9179 30.9594 46.2222 31.45 46.2222C31.9407 46.2222 32.4112 45.9179 32.7581 45.3761C33.1051 44.8343 33.3 44.0995 33.3 43.3333V31.7778Z" fill="#4A4A4A"/>
</svg>
