<svg width="20" height="20" viewBox="0 0 20 20" fill="none" xmlns="http://www.w3.org/2000/svg">
<path d="M9.6875 1.77063C8.52718 1.77063 7.41438 2.23157 6.59391 3.05204C5.77344 3.87251 5.3125 4.98531 5.3125 6.14563C5.3125 8.55813 7.77812 9.23125 7.95187 12.0831H11.4225C11.5962 9.23125 14.0625 8.55813 14.0625 6.14563C14.0625 4.98531 13.6016 3.87251 12.7811 3.05204C11.9606 2.23157 10.8478 1.77063 9.6875 1.77063ZM9.6875 17.6038C10.8713 17.6038 11.2394 16.9619 11.3544 16.5625H8.02063C8.13563 16.9625 8.50375 17.6038 9.6875 17.6038ZM7.96875 15.9363H11.4062V12.7088H7.96875V15.9363Z" fill="#FFD875"/>
</svg>
