<svg width="29" height="29" viewBox="0 0 29 29" fill="none" xmlns="http://www.w3.org/2000/svg">
<path d="M10.5293 1.66674C10.6502 1.25204 10.8847 0.879446 11.2063 0.591112C11.5279 0.302779 11.9239 0.110214 12.3492 0.0352063C12.7746 -0.0398018 13.2125 0.00574041 13.6134 0.16668C14.0142 0.32762 14.362 0.597533 14.6175 0.945882L18.9167 6.80301L26.1804 6.58266C26.6122 6.56955 27.0391 6.67758 27.4127 6.8945C27.7863 7.11142 28.0917 7.42858 28.2944 7.81008C28.4971 8.19159 28.5889 8.62221 28.5595 9.05321C28.5302 9.48421 28.3808 9.89839 28.1282 10.2489L23.8836 16.1467L26.3382 22.9871C26.4841 23.3934 26.5134 23.8324 26.4229 24.2545C26.3324 24.6766 26.1256 25.065 25.8259 25.3758C25.5263 25.6865 25.1456 25.9072 24.7271 26.013C24.3085 26.1188 23.8688 26.1054 23.4574 25.9743L16.5309 23.7588L10.7827 28.2092C10.441 28.4731 10.0323 28.6361 9.6028 28.6798C9.17332 28.7236 8.74016 28.6463 8.35227 28.4568C7.96439 28.2673 7.63724 27.9731 7.40781 27.6074C7.17838 27.2417 7.05581 26.8191 7.05395 26.3874L7.01809 19.1206L1.01231 15.0301C0.655022 14.787 0.372953 14.4487 0.198049 14.0535C0.0231444 13.6583 -0.0376055 13.222 0.022679 12.794C0.0829635 12.3661 0.261874 11.9636 0.539147 11.6321C0.81642 11.3006 1.18098 11.0533 1.59153 10.9183L8.49307 8.64392L10.5293 1.66674Z" fill="#FFD875"/>
</svg>
