<svg width="15" height="21" viewBox="0 0 15 21" fill="none" xmlns="http://www.w3.org/2000/svg">
<path fill-rule="evenodd" clip-rule="evenodd" d="M11.07 14.8472L10.945 15.1648C8.70904 15.9239 6.29096 15.9239 4.055 15.1648L3.93 14.8472C3.81125 14.555 3.75125 14.4076 3.6475 14.2729C3.545 14.1369 3.365 13.9997 3.005 13.7265C1.74449 12.7672 0.812997 11.4289 0.342547 9.90141C-0.127902 8.37389 -0.113439 6.7346 0.383888 5.2159C0.881214 3.6972 1.83617 2.37614 3.11341 1.43997C4.39064 0.503791 5.92535 0 7.5 0C9.07465 0 10.6094 0.503791 11.8866 1.43997C13.1638 2.37614 14.1188 3.6972 14.6161 5.2159C15.1134 6.7346 15.1279 8.37389 14.6575 9.90141C14.187 11.4289 13.2555 12.7672 11.995 13.7265C11.635 13.9997 11.455 14.1369 11.3525 14.2729C11.25 14.4088 11.19 14.5537 11.07 14.8472ZM4.8125 17.9983C4.92083 18.6692 4.9825 19.346 4.9975 20.0288C4.99876 20.119 5.02422 20.2071 5.07114 20.2837C5.11806 20.3603 5.18466 20.4224 5.26375 20.4633C5.95808 20.8163 6.72371 21 7.5 21C8.27629 21 9.04192 20.8163 9.73625 20.4633C9.81534 20.4224 9.88194 20.3603 9.92886 20.2837C9.97578 20.2071 10.0012 20.119 10.0025 20.0288C10.0175 19.346 10.0792 18.6692 10.1875 17.9983C8.41429 18.368 6.58571 18.368 4.8125 17.9983Z" fill="#4A4A4A"/>
</svg>
