<svg width="33" height="41" viewBox="0 0 33 41" fill="none" xmlns="http://www.w3.org/2000/svg">
<path d="M14.3344 32.8L25.9875 21.2175L22.9969 18.245L14.2828 26.9062L9.95156 22.6012L7.0125 25.5225L14.3344 32.8ZM4.125 41C2.99062 41 2.01987 40.5989 1.21275 39.7966C0.405625 38.9944 0.001375 38.0289 0 36.9V4.1C0 2.9725 0.40425 2.00763 1.21275 1.2054C2.02125 0.403167 2.992 0.00136667 4.125 0H20.625L33 12.3V36.9C33 38.0275 32.5964 38.993 31.7893 39.7966C30.9822 40.6002 30.0107 41.0014 28.875 41H4.125ZM18.5625 14.35H28.875L18.5625 4.1V14.35Z" fill="#4A4A4A"/>
</svg>
