<svg width="24" height="24" viewBox="0 0 24 24" fill="none" xmlns="http://www.w3.org/2000/svg">
<path fill-rule="evenodd" clip-rule="evenodd" d="M14.9 1.38997C13.2681 0.946063 11.556 0.884038 9.89627 1.20871C8.23657 1.53338 6.67397 2.23602 5.32968 3.26213C3.9854 4.28824 2.89555 5.61023 2.14469 7.12556C1.39384 8.64089 1.00214 10.3088 1 12C0.998666 13.5702 1.33352 15.1225 1.98205 16.5526C2.63059 17.9826 3.57777 19.2572 4.75991 20.2907C5.94206 21.3242 7.33178 22.0927 8.83563 22.5444C10.3395 22.9961 11.9226 23.1206 13.4786 22.9095C15.0346 22.6985 16.5273 22.1567 17.8565 21.3207C19.1857 20.4847 20.3205 19.3738 21.1846 18.0627C22.0487 16.7517 22.6221 15.2708 22.8662 13.7197C23.1104 12.1685 23.0196 10.5831 22.6 9.06997C22.06 9.46997 21.44 9.77997 20.77 9.96997C21.0716 11.2893 21.0724 12.6596 20.7724 13.9793C20.4725 15.299 19.8794 16.5343 19.0371 17.5937C18.1948 18.653 17.1249 19.5092 15.9068 20.0989C14.6886 20.6885 13.3534 20.9965 12 21C10.7351 20.9968 9.48508 20.7271 8.33144 20.2084C7.1778 19.6896 6.14646 18.9335 5.30468 17.9894C4.46291 17.0453 3.8296 15.9343 3.44606 14.729C3.06252 13.5236 2.93736 12.2509 3.07875 10.994C3.22015 9.737 3.62491 8.52395 4.26665 7.43393C4.90838 6.3439 5.77268 5.4014 6.80317 4.66787C7.83366 3.93434 9.0072 3.42627 10.2473 3.17679C11.4873 2.92731 12.766 2.94203 14 3.21997C14.19 2.54997 14.5 1.92997 14.9 1.38997Z" fill="#FFEAD6"/>
<path d="M23 4.67C23 5.64334 22.6133 6.57682 21.9251 7.26508C21.2368 7.95334 20.3033 8.34 19.33 8.34C18.3567 8.34 17.4232 7.95334 16.7349 7.26508C16.0467 6.57682 15.66 5.64334 15.66 4.67C15.66 3.69666 16.0467 2.76318 16.7349 2.07492C17.4232 1.38666 18.3567 1 19.33 1C20.3033 1 21.2368 1.38666 21.9251 2.07492C22.6133 2.76318 23 3.69666 23 4.67ZM13 11.59V6H11V12.41L15.3 16.71L16.71 15.29L13.01 11.59H13Z" fill="#FFEAD6"/>
</svg>
